<?xml version="1.0" encoding="UTF-8"?>
<svg id="Layer_1" data-name="Layer 1" xmlns="http://www.w3.org/2000/svg" xmlns:xlink="http://www.w3.org/1999/xlink" viewBox="0 0 229 281.22">
  <defs>
    <style>
      .cls-1 {
        stroke: url(#linear-gradient-4);
        stroke-width: 20px;
      }

      .cls-1, .cls-2, .cls-3, .cls-4 {
        fill: none;
        stroke-linecap: round;
        stroke-linejoin: round;
      }

      .cls-2 {
        stroke: url(#linear-gradient-3);
      }

      .cls-2, .cls-3, .cls-4 {
        stroke-width: 16px;
      }

      .cls-3 {
        stroke: url(#linear-gradient-2);
      }

      .cls-4 {
        stroke: url(#linear-gradient);
      }
    </style>
    <linearGradient id="linear-gradient" x1="43.56" y1="73.29" x2="120.84" y2="150.57" gradientUnits="userSpaceOnUse">
      <stop offset="0" stop-color="#3761e3"/>
      <stop offset="1" stop-color="#8739e1"/>
    </linearGradient>
    <linearGradient id="linear-gradient-2" x1="144.69" y1="92.49" x2="189.71" y2="137.51" xlink:href="#linear-gradient"/>
    <linearGradient id="linear-gradient-3" x1="135.79" y1="101.49" x2="163.01" y2="128.71" xlink:href="#linear-gradient"/>
    <linearGradient id="linear-gradient-4" x1="28.16" y1="36.07" x2="199.36" y2="207.27" xlink:href="#linear-gradient"/>
  </defs>
  <g>
    <path class="cls-4" d="M97.4,162.7v-26l12.1,1.3c7.3-.4,13.1-6.1,13.7-13.3v-36.2c0-19.1-15.3-34.6-34.4-34.7-19.1,0-34.6,15.3-34.7,34.4,0,17.8,4.2,19.4,6.4,28.9,1.5,5.7,1.5,11.8.2,17.5l-6.5,28.2"/>
    <path class="cls-3" d="M167.2,148.7c18.6-18.6,18.6-48.7,0-67.4"/>
    <path class="cls-2" d="M149.5,130.9c8.7-8.7,8.7-22.8,0-31.4,0,0-.1-.1-.2-.2"/>
  </g>
  <path class="cls-1" d="M218.9,114.5c0,65.2-72.3,133.1-96.6,154.1-4.6,3.5-11.1,3.5-15.7,0C82.3,247.6,10,179.7,10,114.5S56.8,10,114.5,10s104.5,46.8,104.5,104.5"/>
</svg>